<svg width="64" height="61" viewBox="0 0 64 61" fill="none" xmlns="http://www.w3.org/2000/svg">
<path fill-rule="evenodd" clip-rule="evenodd" d="M58.6666 30.4999C58.6666 44.5372 46.7276 55.9166 32 55.9166C17.2724 55.9166 5.33331 44.5372 5.33331 30.4999C5.33331 16.4627 17.2724 5.08325 32 5.08325C46.7276 5.08325 58.6666 16.4627 58.6666 30.4999ZM32.9555 23.847C30.3618 24.8752 25.178 27.0035 17.4041 30.2316C16.1418 30.7101 15.4805 31.1782 15.4203 31.6359C15.3186 32.4094 16.3348 32.714 17.7188 33.1287C17.907 33.1851 18.1021 33.2436 18.302 33.3056C19.6636 33.7274 21.4951 34.2209 22.4472 34.2405C23.3109 34.2583 24.2749 33.9189 25.3391 33.2224C32.6025 28.5492 36.3519 26.1872 36.5873 26.1363C36.7534 26.1003 36.9835 26.0552 37.1394 26.1873C37.2953 26.3194 37.28 26.5695 37.2635 26.6366C37.1628 27.0457 33.1735 30.5806 31.1091 32.41C30.4655 32.9803 30.009 33.3848 29.9157 33.4772C29.7066 33.6841 29.4935 33.8799 29.2888 34.068C28.0239 35.2303 27.0753 36.1018 29.3413 37.5251C30.4302 38.2091 31.3016 38.7746 32.1709 39.3389C33.1203 39.9551 34.0672 40.5698 35.2924 41.3352C35.6045 41.5303 35.9027 41.7328 36.193 41.9301C37.2979 42.6809 38.2905 43.3553 39.5168 43.2478C40.2294 43.1853 40.9654 42.5466 41.3392 40.642C42.2226 36.1406 43.9591 26.3876 44.3604 22.3687C44.3956 22.0166 44.3513 21.5659 44.3158 21.3681C44.2803 21.1703 44.2061 20.8884 43.9363 20.6798C43.6168 20.4327 43.1236 20.3806 42.903 20.3843C41.9 20.4011 40.3612 20.9111 32.9555 23.847Z" fill="white"/>
</svg>
