<svg width="48" height="46" viewBox="0 0 48 46" fill="none" xmlns="http://www.w3.org/2000/svg">
<path fill-rule="evenodd" clip-rule="evenodd" d="M0 22.3555C0 9.89781 10.4801 0.674805 24 0.674805C37.5199 0.674805 48 9.89781 48 22.3555C48 34.8132 37.5199 44.0362 24 44.0362C21.5716 44.0362 19.2418 43.7376 17.0527 43.177C16.6272 43.0679 16.1747 43.0988 15.7709 43.2646L11.0072 45.223C9.76114 45.7353 8.35454 44.9101 8.31278 43.6419L8.18208 39.6661C8.166 39.1761 7.92936 38.7184 7.53734 38.3916C2.86752 34.5024 0 28.8717 0 22.3555ZM16.6381 18.2793L9.5881 28.6959C8.91154 29.6955 10.231 30.822 11.2417 30.1077L18.8146 24.7553C19.3268 24.3932 20.0347 24.3913 20.5491 24.7506L26.1565 28.6672C27.839 29.8425 30.2405 29.4298 31.362 27.7728L38.412 17.3561C39.0884 16.3565 37.769 15.23 36.7583 15.9443L29.1854 21.2967C28.6731 21.6588 27.9653 21.6608 27.4508 21.3014L21.8436 17.3848C20.161 16.2096 17.7595 16.6222 16.6381 18.2793Z" fill="white"/>
</svg>
