<svg width="64" height="61" viewBox="0 0 64 61" fill="none" xmlns="http://www.w3.org/2000/svg">
<rect width="64" height="61" fill="black"/>
<path d="M32.1006 8.36279C18.927 8.36279 8.20594 18.2049 8.20129 30.3007C8.19819 34.1687 9.30065 37.9439 11.391 41.2689L8 52.637L20.6705 49.5865C24.1949 51.3437 28.1138 52.2603 32.0914 52.2577H32.1006C45.2743 52.2577 55.9954 42.4141 56 30.3184C56.0031 24.4594 53.5195 18.9443 49.0059 14.7988C44.4939 10.6518 38.4939 8.36427 32.1006 8.36279ZM32.1006 48.552H32.0929C28.5285 48.552 25.0323 47.6724 21.9819 46.0106L21.2542 45.6151L13.7383 47.4244L15.745 40.6948L15.2728 40.0056C13.2891 37.122 12.2332 33.7487 12.2348 30.3007C12.2395 20.246 21.152 12.0685 32.1084 12.0685C37.4132 12.07 42.4005 13.9694 46.1523 17.4154C49.904 20.8614 51.968 25.4438 51.9649 30.3169C51.9603 40.3716 43.0493 48.552 32.0991 48.552H32.1006ZM42.9966 34.8934C42.399 34.6203 39.4632 33.2936 38.9151 33.1091C38.3685 32.9276 37.9706 32.8331 37.5726 33.3821C37.1763 33.9311 36.0305 35.1664 35.6836 35.5309C35.3337 35.8969 34.9853 35.9412 34.3876 35.6682C33.7899 35.3937 31.8653 34.8152 29.5861 32.9468C27.8101 31.4946 26.6116 29.7 26.2632 29.1495C25.9148 28.602 26.2261 28.3054 26.5249 28.0323C26.7928 27.7888 27.1226 27.3933 27.4199 27.0731C27.7172 26.7528 27.8163 26.5241 28.0175 26.1581C28.2157 25.7935 28.1166 25.4718 27.9665 25.1988C27.8163 24.9228 26.624 22.225 26.1239 21.1285C25.6408 20.06 25.1484 20.2032 24.7814 20.1855C24.433 20.1707 24.0366 20.1663 23.6356 20.1663C23.2408 20.1663 22.592 20.3035 22.0439 20.8525C21.4973 21.4015 19.9535 22.7268 19.9535 25.4246C19.9535 28.1238 22.0934 30.7301 22.3923 31.0961C22.6911 31.4606 26.6039 36.9993 32.5946 39.3754C34.0191 39.9377 35.1308 40.2756 35.9995 40.5295C37.4302 40.9471 38.7324 40.8866 39.7605 40.7464C40.9063 40.5885 43.2939 39.4211 43.7894 38.1416C44.288 36.8621 44.288 35.7641 44.1394 35.5353C43.9938 35.3066 43.5943 35.1693 42.9966 34.8934Z" fill="white"/>
</svg>
